<svg width="64" height="64" viewBox="0 0 64 64" fill="none" xmlns="http://www.w3.org/2000/svg">
<g clip-path="url(#clip0_2_162)">
<path d="M32 0C49.6723 0 64 14.3277 64 32C64 49.6723 49.6717 64 32 64C14.3283 64 0 49.6762 0 32C0 14.3238 14.3258 0 32 0Z" fill="#53AE94"/>
<path d="M35.9493 27.7363V22.976H46.8351V15.7229H17.1929V22.976H28.0799V27.7325C19.2319 28.1389 12.5791 29.8912 12.5791 31.9904C12.5791 34.0896 19.2351 35.8419 28.0799 36.2509V51.4989H35.9519V36.2496C44.7839 35.8419 51.4233 34.0909 51.4233 31.9936C51.4233 29.8963 44.7839 28.1453 35.9519 27.7376M35.9519 34.9581V34.9542C35.7298 34.9683 34.5887 35.0368 32.0479 35.0368C30.0165 35.0368 28.5874 34.9792 28.0837 34.953V34.9594C20.2668 34.6131 14.4319 33.2518 14.4319 31.623C14.4319 29.9942 20.2674 28.6349 28.0837 28.288V33.6032C28.5957 33.6384 30.0601 33.7248 32.0812 33.7248C34.5087 33.7248 35.7292 33.6237 35.9532 33.6032V28.288C43.7548 28.6355 49.5762 29.9981 49.5762 31.6211C49.5762 33.2442 43.7522 34.6074 35.9532 34.9549" fill="white"/>
</g>
<defs>
<clipPath id="clip0_2_162">
<rect width="64" height="64" fill="white"/>
</clipPath>
</defs>
</svg>
